<?xml version="1.0" standalone="no"?><!DOCTYPE svg PUBLIC "-//W3C//DTD SVG 1.1//EN" "http://www.w3.org/Graphics/SVG/1.1/DTD/svg11.dtd"><svg t="1616743093106" class="icon" viewBox="0 0 1024 1024" version="1.1" xmlns="http://www.w3.org/2000/svg" p-id="2069" xmlns:xlink="http://www.w3.org/1999/xlink" width="200" height="200"><defs><style type="text/css"></style></defs><path d="M756.778667 257.962667c72.832 56.234667 134.826667 138.624 179.413333 241.621333a31.104 31.104 0 0 1 0 24.405333C847.104 730.069333 688.512 853.333333 512 853.333333h-0.426667c-176.085333 0-334.677333-123.306667-423.722666-329.344a31.061333 31.061333 0 0 1 0-24.405333C176.896 293.546667 335.488 170.666667 511.573333 170.666667H512c88.234667 0 171.946667 30.634667 244.778667 87.296zM345.472 512c0 91.008 74.538667 165.12 166.528 165.12 91.562667 0 166.101333-74.112 166.101333-165.12A165.888 165.888 0 0 0 512 346.496c-91.989333 0-166.485333 74.069333-166.485333 165.504z" fill="#200E32" opacity=".4" p-id="2070"></path><path d="M615.68 511.872a103.594667 103.594667 0 0 1-103.594667 103.04c-57.472 0-104.106667-46.378667-104.106666-103.04 0-7.04 0.853333-13.653333 2.133333-20.224h2.048a85.205333 85.205333 0 0 0 85.333333-81.962667c4.565333-0.810667 9.6-1.28 14.592-1.28a103.68 103.68 0 0 1 103.637334 103.466667z" fill="#200E32" p-id="2071"></path></svg>